<svg width="32" height="33" viewBox="0 0 32 33" fill="none" xmlns="http://www.w3.org/2000/svg">
<rect y="1" width="32" height="32" rx="4" fill="#323232"/>
<path d="M25.3333 5.83334H6.66667C5.19391 5.83334 4 7.02725 4 8.50001V27.1667C4 28.6394 5.19391 29.8333 6.66667 29.8333H25.3333C26.8061 29.8333 28 28.6394 28 27.1667V8.50001C28 7.02725 26.8061 5.83334 25.3333 5.83334Z" stroke="white" stroke-width="1.5" stroke-linecap="round" stroke-linejoin="round"/>
<path d="M21.3333 3.16666V8.49999" stroke="white" stroke-width="1.5" stroke-linecap="round" stroke-linejoin="round"/>
<path d="M10.6667 3.16666V8.49999" stroke="white" stroke-width="1.5" stroke-linecap="round" stroke-linejoin="round"/>
<path d="M4 13.8333H28" stroke="white" stroke-width="1.5" stroke-linecap="round" stroke-linejoin="round"/>
<circle cx="7.5" cy="17.5" r="1.5" fill="#FF8000"/>
<rect x="10" y="17" width="15" height="1" rx="0.5" fill="#7B7B7B"/>
<circle cx="7.5" cy="21.5" r="1.5" fill="#0073FF"/>
<rect x="10" y="21" width="15" height="1" rx="0.5" fill="#7B7B7B"/>
<circle cx="7.5" cy="25.5" r="1.5" fill="#FF0004"/>
<rect x="10" y="25" width="15" height="1" rx="0.5" fill="#7B7B7B"/>
</svg>
